# xmcd
#
# Track frame offsets: 
#        150
#        19410
#        39090
#        58675
#        76580
#        94605
#        112195
#        127590
#        145572
#        159847
#        175860
#        193835
#        207872
#
# Disc length: 2934 seconds
#
# Revision: 2
# Processed by: cddbd v1.5.2PL0 Copyright (c) Steve Scherf et al.
# Submitted via: ExactAudioCopy v0.95b4
#
DISCID=9a0b740d
DTITLE=Various Artist - Chronicle
DYEAR=1979
DGENRE=Blues
TTITLE0=Albert King - Can't You See What You're Doing To Me
TTITLE1=Albert King - Everybody Wants To Go To Heaven
TTITLE2=Albert King - Angel Of Mercy
TTITLE3=Albert King - I'll Play The Blues For You
TTITLE4=Albert King - Breaking Up Somebody's Home
TTITLE5=Albert King - That's What The Blues Is All About
TTITLE6=Little Milton - If That Ain't A Reason
TTITLE7=Little Milton - That's What Love Will Make You Do
TTITLE8=Little Milton - What It Is
TTITLE9=Little Milton - Tin Pan Alley
TTITLE10=Little Milton - Behind Closed Doors
TTITLE11=Little Milton - Let Me Back In
TTITLE12=Little Milton - If You Talk In You're Sleep
EXTD=
EXTT0=
EXTT1=
EXTT2=
EXTT3=
EXTT4=
EXTT5=
EXTT6=
EXTT7=
EXTT8=
EXTT9=
EXTT10=
EXTT11=
EXTT12=
PLAYORDER=
